PathFileType	4	(X/Y/Z)	/Users/itak/Documents/Research/Walk-IL/dataset/trc/00564_00009.trc
DataRate	CameraRate	NumFrames	NumMarkers	Units	OrigDataRate	OrigDataStartFrame	OrigNumFrames
100.000000	100.000000	4	53	mm	100.000000	251	503
Frame#	Time	RPSI			LPSI			L3			STRN			T10			C7			CLAV			RBAK			LBAK			LSHO			LUPA			LAEL			LAOL			LWTS			LWPS			LFRA			LHPS			LHTS			RSHO			RUPA			RAEL			RAOL			RWTS			RWPS			RFRA			RIFD			RHTS			RHPS			RBHD			LFHD			RFHD			LBHD			LHIP			RHIP			RASI			LASI			LKNE			LTHI			LANK			LTIP			LTOE			LMT1			LMT5			LHEE			RKNE			RTHI			RANK			RTIP			RTOE			RMT1			RMT5			RHEE			LIFD			
		X1	Y1	Z1	X2	Y2	Z2	X3	Y3	Z3	X4	Y4	Z4	X5	Y5	Z5	X6	Y6	Z6	X7	Y7	Z7	X8	Y8	Z8	X9	Y9	Z9	X10	Y10	Z10	X11	Y11	Z11	X12	Y12	Z12	X13	Y13	Z13	X14	Y14	Z14	X15	Y15	Z15	X16	Y16	Z16	X17	Y17	Z17	X18	Y18	Z18	X19	Y19	Z19	X20	Y20	Z20	X21	Y21	Z21	X22	Y22	Z22	X23	Y23	Z23	X24	Y24	Z24	X25	Y25	Z25	X26	Y26	Z26	X27	Y27	Z27	X28	Y28	Z28	X29	Y29	Z29	X30	Y30	Z30	X31	Y31	Z31	X32	Y32	Z32	X33	Y33	Z33	X34	Y34	Z34	X35	Y35	Z35	X36	Y36	Z36	X37	Y37	Z37	X38	Y38	Z38	X39	Y39	Z39	X40	Y40	Z40	X41	Y41	Z41	X42	Y42	Z42	X43	Y43	Z43	X44	Y44	Z44	X45	Y45	Z45	X46	Y46	Z46	X47	Y47	Z47	X48	Y48	Z48	X49	Y49	Z49	X50	Y50	Z50	X51	Y51	Z51	X52	Y52	Z52	X53	Y53	Z53	

252	2.51	28.40123748779297	1006.605102539062	-107.5094223022461	137.3153228759766	1015.601806640625	-181.9183502197266	92.03722381591797	1110.800659179688	-141.1528625488281	241.2403717041016	1282.8115234375	58.29990386962891	94.68173980712891	1237.533325195312	-141.5097045898438	124.7975463867188	1508.20849609375	-75.62331390380859	232.997314453125	1394.361694335938	50.88137435913086	9.000816345214844	1387.3828125	-89.43812561035156	176.2120361328125	1458.672119140625	-160.6398010253906	300.4621887207031	1478.651733398438	-130.5009460449219	366.5384826660156	1361.710815429688	-192.7671661376953	434.3331909179688	1153.673217773438	-198.2035827636719	346.6610107421875	1124.662231445312	-241.6650848388672	498.1504211425781	938.3184814453125	-63.82254791259766	544.6100463867188	919.9887084960938	-135.4162902832031	471.7065124511719	1078.319213867188	-173.8985290527344	559.1920776367188	863.817138671875	-118.0690002441406	543.9463500976562	871.8036499023438	-52.01128005981445	34.29599380493164	1464.5537109375	62.58165740966797	-31.69133758544922	1399.99169921875	85.15195465087891	-82.16181945800781	1113.275268554688	92.63803100585938	-95.331787109375	1098.222290039062	31.08564376831055	37.43152236938477	901.3142700195312	183.0459747314453	-41.12322235107422	875.846923828125	183.9037322998047	-81.50580596923828	1057.68310546875	105.2710189819336	53.33094024658203	731.103759765625	192.7933959960938	45.9553108215332	811.7044067382812	218.3345031738281	-24.50788116455078	803.0178833007812	198.9323272705078	131.8094635009766	1682.9375	46.07399749755859	330.7819519042969	1678.421752929688	109.4403686523438	199.4330444335938	1674.9482421875	169.3161926269531	286.3246154785156	1684.213745117188	-16.89825630187988	321.4432983398438	942.966796875	-161.6900939941406	4.5832200050354	935.9450073242188	65.68422698974609	103.0436172485352	969.6406860351562	98.13644409179688	324.8458557128906	962.9482421875	-65.71169281005859	297.3226013183594	497.4562377929688	-135.0665740966797	322.1898498535156	664.7040405273438	-141.0986175537109	228.7177124023438	34.18799209594727	-247.5180816650391	253.5544128417969	257.3609924316406	-213.81787109375	315.2125549316406	40.36071395874023	-43.87984848022461	242.4013061523438	45.07913970947266	-81.32623291015625	316.5745544433594	37.47317123413086	-160.9985046386719	142.5988159179688	39.75624465942383	-266.9849853515625	145.7065124511719	522.4741821289062	169.9990081787109	51.95367050170898	796.6768798828125	126.2327575683594	137.56884765625	48.14163589477539	66.94157409667969	164.6482543945312	375.7986145019531	162.6853942871094	269.3555603027344	74.04529571533203	241.944580078125	280.1414184570312	65.14983367919922	167.646240234375	178.2652740478516	58.43061828613281	190.9063415527344	164.5362548828125	39.74396896362305	-5.41761302947998	547.8510131835938	775.087646484375	-52.08869552612305	
253	2.52	33.09210205078125	1005.883483886719	-103.7063903808594	142.5255432128906	1014.78369140625	-177.2048797607422	97.25361633300781	1110.332397460938	-136.8914794921875	244.8389282226562	1281.967163085938	64.12685394287109	100.1757125854492	1237.015747070312	-136.9549560546875	129.7894592285156	1507.5224609375	-70.52732849121094	236.7647094726562	1393.536987304688	56.80490112304688	14.104736328125	1386.90625	-85.60685729980469	182.0846862792969	1458.072143554688	-155.2425537109375	305.9823303222656	1477.919677734375	-123.8552856445312	372.64794921875	1360.903198242188	-185.4006958007812	440.6054077148438	1152.87890625	-189.6419219970703	353.4330749511719	1123.687255859375	-233.9598846435547	503.1529235839844	938.0632934570312	-53.84721374511719	550.3181762695312	919.4439697265625	-124.8886871337891	477.7868957519531	1077.580688476562	-164.6437683105469	564.8041381835938	863.3868408203125	-107.1720581054688	548.8963623046875	871.6692504882812	-41.28627777099609	38.03804016113281	1463.883666992188	66.77062225341797	-28.17315864562988	1399.296630859375	88.61127471923828	-78.92567443847656	1112.612182617188	95.44803619384766	-91.57545471191406	1097.864135742188	33.63230133056641	39.27313232421875	900.3843994140625	186.7499084472656	-39.29376220703125	874.9686279296875	186.7819061279297	-78.42640686035156	1057	107.9624481201172	54.70149612426758	729.9867553710938	196.3533477783203	47.31303405761719	810.5405883789062	221.9358825683594	-23.00369262695312	802.1022338867188	201.8473968505859	135.6192016601562	1682.166870117188	51.18350219726562	334.2157287597656	1677.681640625	116.1290740966797	202.4950408935547	1674.245483398438	175.0008239746094	290.7153930664062	1683.401245117188	-10.53159809112549	326.4671325683594	942.0064086914062	-155.6617736816406	8.259418487548828	935.7810668945312	69.54634857177734	106.3235473632812	969.2283935546875	102.6176834106445	329.0936279296875	961.789794921875	-59.80367660522461	298.9760437011719	496.734375	-132.4901580810547	325.1640319824219	663.7374267578125	-136.7313232421875	228.6243743896484	34.38718795776367	-247.4087219238281	254.1539154052734	257.2949829101562	-212.6891632080078	315.2508239746094	40.33221435546875	-43.81169509887695	242.3735046386719	45.00460815429688	-81.25345611572266	316.5792541503906	37.53407669067383	-160.9538726806641	142.5106658935547	40.02581787109375	-266.8713989257812	148.7926940917969	523.0482177734375	177.0254058837891	54.46161651611328	796.524658203125	130.9582977294922	152.3733215332031	45.9699821472168	87.61357879638672	170.8089752197266	376.7396240234375	173.8102416992188	282.6987609863281	77.11325836181641	262.8607177734375	293.97216796875	67.24198150634766	188.8182678222656	192.0863952636719	59.2801399230957	211.6097106933594	179.9935455322266	36.77316665649414	15.54839038848877	552.9508666992188	774.9852294921875	-40.95646286010742	
254	2.53	37.73317337036133	1005.091125488281	-99.68229675292969	147.5887908935547	1013.910278320312	-172.3757934570312	102.3493499755859	1109.782104492188	-132.4513092041016	248.3849487304688	1281.049560546875	70.03857421875	105.5506591796875	1236.403442382812	-132.2598571777344	134.6901702880859	1506.755493164062	-65.31257629394531	240.4703216552734	1392.640502929688	62.82010650634766	19.12691497802734	1386.327392578125	-81.61517333984375	187.8179626464844	1457.403198242188	-149.7284698486328	311.3749389648438	1477.131958007812	-117.1285705566406	378.6067810058594	1360.036254882812	-177.9623107910156	446.6329956054688	1151.989379882812	-180.9931182861328	359.9547424316406	1122.652465820312	-226.1676330566406	507.7601013183594	937.68896484375	-43.77149963378906	555.6497192382812	918.7538452148438	-114.2752380371094	483.566650390625	1076.7255859375	-155.3075408935547	569.9878540039062	862.7955932617188	-96.17414855957031	553.4043579101562	871.3815307617188	-30.47160339355469	41.73647689819336	1463.119262695312	71.10012054443359	-24.68976974487305	1398.509399414062	92.20711517333984	-75.75442504882812	1111.864135742188	98.34872436523438	-87.82569885253906	1097.397705078125	36.32621002197266	41.00028991699219	899.3568725585938	190.4319915771484	-37.56094360351562	873.9859008789062	189.6757965087891	-75.42452239990234	1056.2509765625	110.7481079101562	55.92751693725586	728.7363891601562	199.8956451416016	48.55261993408203	809.2604370117188	225.5390014648438	-21.6161994934082	801.0742797851562	204.7678527832031	139.3765716552734	1681.30517578125	56.40870666503906	337.5640563964844	1676.875854492188	122.8910522460938	205.4889984130859	1673.455200195312	180.7709350585938	295.0123291015625	1682.524169921875	-4.067806243896484	331.3527221679688	940.9926147460938	-149.6143798828125	12.02447605133057	935.530517578125	73.67099761962891	109.6541976928711	968.7218017578125	107.2706451416016	333.3553161621094	960.64013671875	-53.80354309082031	300.5425109863281	496.0147399902344	-129.8661193847656	328.0763854980469	662.7656860351562	-132.3955230712891	228.5232543945312	34.594482421875	-247.290771484375	254.7741241455078	257.2559204101562	-211.5711822509766	315.2954406738281	40.30562973022461	-43.74706268310547	242.3548583984375	44.93784332275391	-81.1885986328125	316.5733032226562	37.58829879760742	-160.9046020507812	142.4247283935547	40.31716156005859	-266.7575073242188	151.8232727050781	523.4532470703125	184.0290985107422	57.05399322509766	796.1879272460938	135.7788391113281	166.5855865478516	44.29308700561523	108.2078323364258	176.6290283203125	377.7235412597656	184.8688354492188	295.0292663574219	80.46163940429688	283.8095703125	306.9356689453125	69.65330505371094	210.0636596679688	205.0453033447266	60.47719573974609	232.2342681884766	194.9592590332031	34.37644195556641	36.52724075317383	557.509521484375	774.7208862304688	-29.71209716796875	
255	2.54	42.33340072631836	1004.223999023438	-95.42925262451172	152.5251007080078	1012.978942871094	-167.416748046875	107.3242645263672	1109.133544921875	-127.8207473754883	251.8929901123047	1280.052856445312	76.03389739990234	110.8038558959961	1235.686401367188	-127.4160232543945	139.5008697509766	1505.90673828125	-59.98995971679688	244.1204223632812	1391.668334960938	68.92408752441406	24.06296348571777	1385.6357421875	-77.45967864990234	193.4080352783203	1456.655029296875	-144.0977478027344	316.6407470703125	1476.282836914062	-110.3277130126953	384.4124755859375	1359.102783203125	-170.4520721435547	452.4224243164062	1151.001342773438	-172.2675933837891	366.2332458496094	1121.553100585938	-218.2981109619141	511.989501953125	937.1947021484375	-33.60842895507812	560.611083984375	917.9193115234375	-103.5853576660156	489.051513671875	1075.759887695312	-145.9011077880859	574.7499389648438	862.0435180664062	-85.08873748779297	557.480224609375	870.934814453125	-19.58538627624512	45.38630294799805	1462.25439453125	75.56536102294922	-21.24402809143066	1397.6259765625	95.95034790039062	-72.64745330810547	1111.026123046875	101.339469909668	-84.07320404052734	1096.796508789062	39.17893218994141	42.62864303588867	898.1932983398438	194.1149139404297	-35.92517471313477	872.89501953125	192.5941467285156	-72.50977325439453	1055.438232421875	113.6380920410156	57.00968933105469	727.3480834960938	203.4335784912109	49.67421722412109	807.8600463867188	229.1504516601562	-20.34063720703125	799.9248046875	207.6955413818359	143.0763549804688	1680.348999023438	61.75315093994141	340.8311462402344	1675.99609375	129.7235412597656	208.4107360839844	1672.571411132812	186.6231689453125	299.2165832519531	1681.5751953125	2.494933366775513	336.1107788085938	939.9260864257812	-143.544677734375	15.84016513824463	935.1581420898438	78.03691864013672	113.0400314331055	968.1069946289062	112.1003265380859	337.6286926269531	959.4885864257812	-47.70870590209961	302.0175476074219	495.2875061035156	-127.1877746582031	330.9314575195312	661.78759765625	-128.0964202880859	228.4145202636719	34.81679916381836	-247.1614990234375	255.4251098632812	257.2497253417969	-210.4660186767578	315.3455200195312	40.2801513671875	-43.6879768371582	242.3424377441406	44.87691116333008	-81.1297607421875	316.554931640625	37.63692092895508	-160.8502807617188	142.340576171875	40.63114547729492	-266.6426086425781	154.8456268310547	523.6663818359375	191.0133514404297	59.73114013671875	795.6838989257812	140.6847534179688	180.1667327880859	43.05767440795898	128.6406555175781	182.1370239257812	378.7077026367188	195.8348693847656	306.2279052734375	84.20203399658203	304.7584838867188	318.9490661621094	72.460693359375	231.3606262207031	217.0614166259766	62.03762435913086	252.7033233642578	209.4270935058594	32.47040557861328	57.44928741455078	561.5288696289062	774.281982421875	-18.36929130554199	
